<svg xmlns="http://www.w3.org/2000/svg" width="532.818" height="125.673" viewBox="0 0 532.818 125.673">
  <defs>
    <style>
      .cls-1, .cls-10, .cls-13, .cls-3, .cls-4, .cls-5, .cls-6, .cls-8, .cls-9 {
        fill: none;
      }

      .cls-1, .cls-3, .cls-5 {
        stroke: #e53b3b;
      }

      .cls-1, .cls-10, .cls-3, .cls-6, .cls-8 {
        stroke-linecap: round;
      }

      .cls-1, .cls-10, .cls-6 {
        stroke-linejoin: round;
      }

      .cls-1, .cls-3, .cls-5, .cls-6, .cls-8, .cls-9 {
        stroke-width: 2px;
      }

      .cls-12, .cls-2 {
        fill: #e53b3b;
      }

      .cls-6, .cls-8, .cls-9 {
        stroke: #707070;
      }

      .cls-14, .cls-7 {
        fill: #707070;
      }

      .cls-11, .cls-12, .cls-14 {
        stroke: none;
      }
    </style>
  </defs>
  <g id="Agrupar_148" data-name="Agrupar 148" transform="translate(-673.406 -1550.058)">
    <path id="Caminho_127" data-name="Caminho 127" class="cls-1" d="M0,13.139s7.776,1.918,7.776-6.821C7.129-1.761,0,.213,0,.213" transform="translate(971.517 1670.588) rotate(180)"/>
    <path id="Caminho_126" data-name="Caminho 126" class="cls-1" d="M0,13.139s7.776,1.918,7.776-6.821C7.129-1.761,0,.212,0,.212" transform="translate(1006.733 1657.271)"/>
    <path id="Caminho_128" data-name="Caminho 128" class="cls-2" d="M4.129,1.768c2.28,0,4.129-2.28,4.129,0A4.129,4.129,0,0,1,0,1.768C0-.512,1.848,1.768,4.129,1.768Z" transform="translate(984.776 1669.834)"/>
    <circle id="Elipse_48" data-name="Elipse 48" class="cls-2" cx="2.457" cy="2.457" r="2.457" transform="translate(977.849 1661.642)"/>
    <circle id="Elipse_49" data-name="Elipse 49" class="cls-2" cx="2.457" cy="2.457" r="2.457" transform="translate(995.046 1661.642)"/>
    <path id="Caminho_129" data-name="Caminho 129" class="cls-1" d="M217.367,2062.849c1.74,3.2,1.063,7.915,6.961,12.8a28,28,0,0,0,13.483,5.65s18.127-36.629-26.243-30.523c-17.3,4.478-8.141,29.1-8.141,29.1" transform="translate(768.252 -422.731)"/>
    <path id="Caminho_130" data-name="Caminho 130" class="cls-3" d="M276.108,2066.11s-11.54-4.552-16.629,7.66" transform="translate(711.589 -419.263)"/>
    <g id="Caminho_134" data-name="Caminho 134" class="cls-4" transform="translate(981.301 1619.832)">
      <path class="cls-11" d="M6.375-.2c6.009,0,6.932,4.088,6.932,6.8S9.767,8.164,6.375,8.164s-7.4,1.148-7.4-1.566S.366-.2,6.375-.2Z"/>
      <path class="cls-12" d="M 6.375452995300293 1.79748010635376 C 4.335913181304932 1.79748010635376 2.856622695922852 2.348999977111816 1.978672981262207 3.436710357666016 C 1.196183204650879 4.406149864196777 1.010889053344727 5.603991985321045 0.9810523986816406 6.357967376708984 C 1.14362621307373 6.38304615020752 1.394081115722656 6.405580520629883 1.769203186035156 6.405580520629883 C 2.354733467102051 6.405580520629883 3.044222831726074 6.352680206298828 3.77418327331543 6.296669960021973 C 4.621093273162842 6.231690406799316 5.496842861175537 6.16450023651123 6.375452995300293 6.16450023651123 C 7.273852825164795 6.16450023651123 8.171712875366211 6.236989974975586 8.963883399963379 6.30094051361084 C 9.630413055419922 6.354750156402588 10.25997352600098 6.405580520629883 10.77739334106445 6.405580520629883 C 11.00960159301758 6.405580520629883 11.18100261688232 6.395118713378906 11.30539035797119 6.381672859191895 C 11.2773551940918 5.096800804138184 10.99770641326904 4.077884197235107 10.47307300567627 3.350640296936035 C 9.719133377075195 2.305520057678223 8.378792762756348 1.79748010635376 6.375452995300293 1.79748010635376 M 6.375452995300293 -0.202519416809082 C 12.38472270965576 -0.202519416809082 13.3077335357666 3.885210037231445 13.3077335357666 6.598780155181885 C 13.3077335357666 8.068685531616211 12.26873111724854 8.405583381652832 10.77739143371582 8.405583381652832 C 9.515592575073242 8.405583381652832 7.930037021636963 8.16450023651123 6.375452995300293 8.16450023651123 C 4.821080684661865 8.16450023651123 3.13715934753418 8.405583381652832 1.769203186035156 8.405583381652832 C 0.1519975662231445 8.405583381652832 -1.023746490478516 8.068851470947266 -1.023746490478516 6.598780155181885 C -1.023746490478516 3.885210037231445 0.3661832809448242 -0.202519416809082 6.375452995300293 -0.202519416809082 Z"/>
    </g>
    <path id="Caminho_135" data-name="Caminho 135" class="cls-5" d="M138.5,1637.758c-10.7,5.5-14.066-30.58,22.934-22.935s18.653,34.554,12.537,31.191-8.256-8.256-11.008-4.893,8.868,13.149,1.529,15.6-35.778-2.141-12.843-16.819C154.708,1634.7,149.2,1632.254,138.5,1637.758Z" transform="translate(685.808 8.316)"/>
    <path id="Caminho_133" data-name="Caminho 133" class="cls-1" d="M0,13.531s8.007,1.975,8.007-7.024C7.342-1.813,0,.219,0,.219" transform="translate(898.831 1667.649) rotate(180)"/>
    <path id="Caminho_131" data-name="Caminho 131" class="cls-1" d="M0,13.531s8.007,1.975,8.007-7.024C7.342-1.813,0,.219,0,.219" transform="translate(935.096 1653.935)"/>
    <g id="Agrupar_113" data-name="Agrupar 113" transform="translate(905.351 1658.436)">
      <circle id="Elipse_20" data-name="Elipse 20" class="cls-2" cx="2.53" cy="2.53" r="2.53"/>
      <path id="Caminho_96" data-name="Caminho 96" class="cls-2" d="M4.252,1.8C6.6,1.8,8.5-.55,8.5,1.8A4.252,4.252,0,1,1,0,1.8C0-.55,1.9,1.8,4.252,1.8Z" transform="translate(7.133 8.46)"/>
      <circle id="Elipse_21" data-name="Elipse 21" class="cls-2" cx="2.53" cy="2.53" r="2.53" transform="translate(17.709)"/>
    </g>
    <path id="Caminho_132" data-name="Caminho 132" class="cls-1" d="M218.37,2063.961s1.094,8.15,7.168,13.184a28.832,28.832,0,0,0,13.885,5.818s14.019-32.827-10.941-30c-21.133,3.661-25.306-5.634-25.306-5.634s-9.805,15.285.845,34.422" transform="translate(694.983 -427.69)"/>
    <path id="Caminho_136" data-name="Caminho 136" class="cls-5" d="M-21.258,2105.21c-3.942,10.644,7.921,24.97,16.647,24.97s23.4-13.983,18.258-24.97c-5.19-7.978-18.258,0-18.258,0S-15.831,2096.481-21.258,2105.21Z" transform="translate(757.302 -464.158)"/>
    <g id="Elipse_50" data-name="Elipse 50" class="cls-1" transform="translate(751.188 1627.743)">
      <circle class="cls-11" cx="16.204" cy="16.204" r="16.204"/>
      <circle class="cls-13" cx="16.204" cy="16.204" r="15.204"/>
    </g>
    <line id="Linha_10" data-name="Linha 10" class="cls-3" x2="16.204" y2="12.963" transform="translate(779.545 1652.859)"/>
    <g id="Agrupar_114" data-name="Agrupar 114" transform="translate(970.223 1550.058)">
      <path id="Caminho_95" data-name="Caminho 95" class="cls-6" d="M0,13.139s7.776,1.918,7.776-6.821C7.129-1.761,0,.213,0,.213" transform="translate(7.776 50.959) rotate(180)"/>
      <path id="Caminho_92" data-name="Caminho 92" class="cls-6" d="M0,13.139s7.776,1.918,7.776-6.821C7.129-1.761,0,.212,0,.212" transform="translate(42.992 37.642)"/>
      <path id="Caminho_97" data-name="Caminho 97" class="cls-7" d="M4.129,1.768c2.28,0,4.129-2.28,4.129,0A4.129,4.129,0,0,1,0,1.768C0-.512,1.848,1.768,4.129,1.768Z" transform="translate(21.034 50.205)"/>
      <circle id="Elipse_23" data-name="Elipse 23" class="cls-7" cx="2.457" cy="2.457" r="2.457" transform="translate(14.108 42.012)"/>
      <circle id="Elipse_22" data-name="Elipse 22" class="cls-7" cx="2.457" cy="2.457" r="2.457" transform="translate(31.305 42.012)"/>
      <path id="Caminho_94" data-name="Caminho 94" class="cls-6" d="M217.367,2062.849c1.74,3.2,1.063,7.915,6.961,12.8a28,28,0,0,0,13.483,5.65s18.127-36.629-26.243-30.523c-17.3,4.478-8.141,29.1-8.141,29.1" transform="translate(-195.489 -2042.36)"/>
      <path id="Caminho_98" data-name="Caminho 98" class="cls-8" d="M276.108,2066.11s-11.54-4.552-16.629,7.66" transform="translate(-252.153 -2038.892)"/>
      <g id="Caminho_99" data-name="Caminho 99" class="cls-4" transform="translate(17.559 0.203)">
        <path class="cls-11" d="M6.375-.2c6.009,0,6.932,4.088,6.932,6.8S9.767,8.164,6.375,8.164s-7.4,1.148-7.4-1.566S.366-.2,6.375-.2Z"/>
        <path class="cls-14" d="M 6.375452995300293 1.79748010635376 C 4.335913181304932 1.79748010635376 2.856622695922852 2.348999977111816 1.978672981262207 3.436710357666016 C 1.196183204650879 4.406149864196777 1.010889053344727 5.603991985321045 0.9810523986816406 6.357967376708984 C 1.14362621307373 6.38304615020752 1.394081115722656 6.405580520629883 1.769203186035156 6.405580520629883 C 2.354733467102051 6.405580520629883 3.044222831726074 6.352680206298828 3.77418327331543 6.296669960021973 C 4.621093273162842 6.231690406799316 5.496842861175537 6.16450023651123 6.375452995300293 6.16450023651123 C 7.273852825164795 6.16450023651123 8.171712875366211 6.236989974975586 8.963883399963379 6.30094051361084 C 9.630413055419922 6.354750156402588 10.25997352600098 6.405580520629883 10.77739334106445 6.405580520629883 C 11.00960159301758 6.405580520629883 11.18100261688232 6.395118713378906 11.30539035797119 6.381672859191895 C 11.2773551940918 5.096800804138184 10.99770641326904 4.077884197235107 10.47307300567627 3.350640296936035 C 9.719133377075195 2.305520057678223 8.378792762756348 1.79748010635376 6.375452995300293 1.79748010635376 M 6.375452995300293 -0.202519416809082 C 12.38472270965576 -0.202519416809082 13.3077335357666 3.885210037231445 13.3077335357666 6.598780155181885 C 13.3077335357666 8.068685531616211 12.26873111724854 8.405583381652832 10.77739143371582 8.405583381652832 C 9.515592575073242 8.405583381652832 7.930037021636963 8.16450023651123 6.375452995300293 8.16450023651123 C 4.821080684661865 8.16450023651123 3.13715934753418 8.405583381652832 1.769203186035156 8.405583381652832 C 0.1519975662231445 8.405583381652832 -1.023746490478516 8.068851470947266 -1.023746490478516 6.598780155181885 C -1.023746490478516 3.885210037231445 0.3661832809448242 -0.202519416809082 6.375452995300293 -0.202519416809082 Z"/>
      </g>
    </g>
    <path id="Caminho_137" data-name="Caminho 137" class="cls-9" d="M138.5,1637.758c-10.7,5.5-14.066-30.58,22.934-22.935s18.653,34.554,12.537,31.191-8.256-8.256-11.008-4.893,8.868,13.149,1.529,15.6-35.778-2.141-12.843-16.819C154.708,1634.7,149.2,1632.254,138.5,1637.758Z" transform="translate(687.429 -58.12)"/>
    <g id="Agrupar_115" data-name="Agrupar 115" transform="translate(894.064 1553.205)">
      <path id="Caminho_88" data-name="Caminho 88" class="cls-6" d="M0,13.531s8.007,1.975,8.007-7.024C7.342-1.813,0,.219,0,.219" transform="translate(8.007 48.008) rotate(180)"/>
      <path id="Caminho_91" data-name="Caminho 91" class="cls-6" d="M0,13.531s8.007,1.975,8.007-7.024C7.342-1.813,0,.219,0,.219" transform="translate(44.273 34.294)"/>
      <circle id="Elipse_20-2" data-name="Elipse 20" class="cls-7" cx="2.53" cy="2.53" r="2.53" transform="translate(14.528 38.795)"/>
      <path id="Caminho_96-2" data-name="Caminho 96" class="cls-7" d="M4.252,1.8C6.6,1.8,8.5-.55,8.5,1.8A4.252,4.252,0,1,1,0,1.8C0-.55,1.9,1.8,4.252,1.8Z" transform="translate(21.661 47.254)"/>
      <circle id="Elipse_21-2" data-name="Elipse 21" class="cls-7" cx="2.53" cy="2.53" r="2.53" transform="translate(32.237 38.795)"/>
      <path id="Caminho_90" data-name="Caminho 90" class="cls-6" d="M218.37,2063.961s1.094,8.15,7.168,13.184a28.832,28.832,0,0,0,13.885,5.818s14.019-32.827-10.941-30c-21.133,3.661-25.306-5.634-25.306-5.634s-9.805,15.285.845,34.422" transform="translate(-195.841 -2047.331)"/>
    </g>
    <g id="Agrupar_116" data-name="Agrupar 116" transform="translate(735.265 1561.307)">
      <path id="Caminho_100" data-name="Caminho 100" class="cls-9" d="M-21.258,2105.21c-3.942,10.644,7.921,24.97,16.647,24.97s23.4-13.983,18.258-24.97c-5.19-7.978-18.258,0-18.258,0S-15.831,2096.481-21.258,2105.21Z" transform="translate(22.037 -2091.901)"/>
      <g id="Elipse_18" data-name="Elipse 18" class="cls-6" transform="translate(15.923)">
        <circle class="cls-11" cx="16.204" cy="16.204" r="16.204"/>
        <circle class="cls-13" cx="16.204" cy="16.204" r="15.204"/>
      </g>
      <line id="Linha_4" data-name="Linha 4" class="cls-8" x2="16.204" y2="12.963" transform="translate(44.28 25.116)"/>
    </g>
    <path id="Caminho_139" data-name="Caminho 139" class="cls-9" d="M-21.258,2105.21c-3.942,10.644,7.921,24.97,16.647,24.97s23.4-13.983,18.258-24.97c-5.19-7.978-18.258,0-18.258,0S-15.831,2096.481-21.258,2105.21Z" transform="translate(696.537 -530.594)"/>
    <path id="Caminho_140" data-name="Caminho 140" class="cls-2" d="M-21.258,2105.21c-3.942,10.644,7.921,24.97,16.647,24.97s23.4-13.983,18.258-24.97c-5.19-7.978-18.258,0-18.258,0S-15.831,2096.481-21.258,2105.21Z" transform="translate(696.537 -465.778)"/>
    <g id="Agrupar_118" data-name="Agrupar 118" transform="translate(1115.454 1567.935)">
      <path id="Caminho_118" data-name="Caminho 118" class="cls-6" d="M214.3,1415.745c-3.2-1.464,1.739-2.246,2.541-5.858.633-2.868-.628-6.948,5.193-6.948s4.42,3.681,4.806,6.948c.384,3.212,5.921,4.394,2.786,5.858S217.5,1417.209,214.3,1415.745Z" transform="translate(-213.238 -1398.451)"/>
      <path id="Caminho_119" data-name="Caminho 119" class="cls-7" d="M225.474,1402.685c-.581-.508,1.2-2.034,2.373-2.034s2.918,1.525,2.324,2.034a6.357,6.357,0,0,0-2.324-.532A6.773,6.773,0,0,0,225.474,1402.685Z" transform="translate(-219.015 -1400.651)"/>
    </g>
    <g id="Agrupar_119" data-name="Agrupar 119" transform="translate(1048.24 1573.556)">
      <path id="Caminho_113" data-name="Caminho 113" class="cls-8" d="M32.886,1879.838H55.911" transform="translate(-32.886 -1879.838)"/>
      <path id="Caminho_114" data-name="Caminho 114" class="cls-8" d="M32.886,1879.98H57.981" transform="translate(-32.886 -1873.595)"/>
      <path id="Caminho_115" data-name="Caminho 115" class="cls-8" d="M32.886,1879.838h11.9" transform="translate(-32.886 -1867.067)"/>
    </g>
    <g id="Agrupar_117" data-name="Agrupar 117" transform="translate(1085.054 1566.915)">
      <ellipse id="Elipse_28" data-name="Elipse 28" class="cls-7" cx="3.047" cy="3.047" rx="3.047" ry="3.047" transform="translate(6.093 6.817)"/>
      <g id="Caminho_111" data-name="Caminho 111" class="cls-10">
        <path class="cls-11" d="M9.14,0a9.14,9.14,0,0,1,9.14,9.14c0,5.048-6.816,15.133-9.14,15.133S0,14.187,0,9.14A9.14,9.14,0,0,1,9.14,0Z"/>
        <path class="cls-14" d="M 9.139564514160156 2.000003814697266 C 5.202794075012207 2.000003814697266 2.000003814697266 5.202802658081055 2.000003814697266 9.139573097229004 C 2.000003814697266 10.87558269500732 3.16828441619873 13.88041305541992 5.048924446105957 16.98145294189453 C 6.784909248352051 19.84397125244141 8.387322425842285 21.5701847076416 9.139564514160156 22.13444328308105 C 9.891806602478027 21.5701847076416 11.49422073364258 19.84397125244141 13.23020458221436 16.98145294189453 C 15.11084461212158 13.88041305541992 16.27912521362305 10.87558269500732 16.27912521362305 9.139573097229004 C 16.27912521362305 5.202802658081055 13.07633399963379 2.000003814697266 9.139564514160156 2.000003814697266 M 9.139564514160156 3.814697265625e-06 C 14.18720436096191 3.814697265625e-06 18.27912521362305 4.091922760009766 18.27912521362305 9.139573097229004 C 18.27912521362305 14.18721294403076 11.46321487426758 24.27276229858398 9.139564514160156 24.27276229858398 C 6.815914154052734 24.27276229858398 3.814697265625e-06 14.18721294403076 3.814697265625e-06 9.139573097229004 C 3.814697265625e-06 4.091922760009766 4.091924667358398 3.814697265625e-06 9.139564514160156 3.814697265625e-06 Z"/>
      </g>
    </g>
    <path id="Caminho_138" data-name="Caminho 138" class="cls-9" d="M-21.624,2103.387c-2.09,5.643,4.2,13.238,8.825,13.238s12.406-7.413,9.679-13.238c-2.751-4.229-9.679,0-9.679,0S-18.747,2098.76-21.624,2103.387Z" transform="translate(1166.984 -530.298)"/>
    <g id="Agrupar_144" data-name="Agrupar 144" transform="translate(1171.73 1565.192)">
      <g id="Retângulo_196" data-name="Retângulo 196" class="cls-9" transform="translate(0 4.928)">
        <rect class="cls-11" width="34.494" height="19.711" rx="3"/>
        <rect class="cls-13" x="1" y="1" width="32.494" height="17.711" rx="2"/>
      </g>
      <g id="Elipse_58" data-name="Elipse 58" class="cls-9" transform="translate(11.087 8.623)">
        <circle class="cls-11" cx="6.16" cy="6.16" r="6.16"/>
        <circle class="cls-13" cx="6.16" cy="6.16" r="5.16"/>
      </g>
      <rect id="Retângulo_197" data-name="Retângulo 197" class="cls-7" width="7.391" height="3.696" rx="1.848" transform="translate(2.464 0)"/>
    </g>
    <g id="Agrupar_146" data-name="Agrupar 146" transform="translate(1171.73 1594.359)">
      <g id="Retângulo_196-2" data-name="Retângulo 196" class="cls-5" transform="translate(0 4.928)">
        <rect class="cls-11" width="34.494" height="19.711" rx="3"/>
        <rect class="cls-13" x="1" y="1" width="32.494" height="17.711" rx="2"/>
      </g>
      <g id="Elipse_58-2" data-name="Elipse 58" class="cls-5" transform="translate(11.087 8.623)">
        <circle class="cls-11" cx="6.16" cy="6.16" r="6.16"/>
        <circle class="cls-13" cx="6.16" cy="6.16" r="5.16"/>
      </g>
      <rect id="Retângulo_197-2" data-name="Retângulo 197" class="cls-2" width="7.391" height="3.696" rx="1.848" transform="translate(2.464)"/>
    </g>
  </g>
</svg>
