<svg xmlns="http://www.w3.org/2000/svg" width="351.302" height="230.364" viewBox="0 0 351.302 230.364">
  <path id="União_1" data-name="União 1" d="M179.278,230.364a4.229,4.229,0,0,1-4.6-4.6V198.76c0,.575-.574,1.149-.574,1.724a21.851,21.851,0,0,1-5.171,7.47,36.61,36.61,0,0,1-8.045,4.6,28.543,28.543,0,0,1-19.536,0c-2.873-1.149-5.747-2.3-8.044-4.6a21.854,21.854,0,0,1-5.172-7.47c0-.574-.574-1.148-.574-1.724v9.769a4.229,4.229,0,0,1-4.6,4.6h-4.6a4.229,4.229,0,0,1-4.6-4.6v-1.723a15.238,15.238,0,0,1-2.873,3.447,9.259,9.259,0,0,1-4.022,2.3,16.992,16.992,0,0,1-5.746,1.149,18.352,18.352,0,0,1-8.044-1.723,25.515,25.515,0,0,1-6.321-4.6,4.862,4.862,0,0,1,0,4.022q-.863,1.724-3.448,1.724H77.572A4.919,4.919,0,0,1,72.4,209.1l-2.873-9.193H50.566L47.693,209.1c-.575,2.874-2.3,4.023-5.171,4.023H36.775q-2.585,0-3.448-1.724a4.862,4.862,0,0,1,0-4.022L51.14,155.091c.575-2.874,2.3-4.023,5.172-4.023h8.044c2.873,0,4.6,1.724,6.895,2.874l12.067,36.2v-.574c0-4.022,1.149-6.9,1.723-9.769s2.3-5.171,4.023-7.47a25.49,25.49,0,0,1,6.321-4.6,18.349,18.349,0,0,1,8.044-1.724c2.3,0,4.6,0,5.746.575l3.447,1.723,2.3,2.3V155.091c0-2.874,1.149-4.6,4.6-4.6h5.171a4.229,4.229,0,0,1,4.6,4.6V182.1c0-.575.575-1.149.575-1.723a21.851,21.851,0,0,1,5.171-7.47,36.624,36.624,0,0,1,8.044-4.6,28.545,28.545,0,0,1,19.537,0c2.873,1.149,5.746,2.3,8.044,4.6a21.851,21.851,0,0,1,5.171,7.47c0,.574.575,1.148.575,1.723v-9.769c0-2.873,1.149-4.6,4.6-4.6h4.023a4.858,4.858,0,0,1,3.447,1.148,4.389,4.389,0,0,1,1.149,2.874v2.3l3.448-3.448c1.149-.575,2.3-1.724,4.022-2.3a20.671,20.671,0,0,1,6.321-1.149,18.368,18.368,0,0,1,8.045,1.724c2.3,1.149,4.6,2.3,6.321,4.6a42.892,42.892,0,0,1,4.022,6.9,23.729,23.729,0,0,1,4.022-6.321,21.871,21.871,0,0,1,7.47-5.172,26.858,26.858,0,0,1,9.769-1.724,21,21,0,0,1,8.618,1.724,25.516,25.516,0,0,1,6.321,4.6.563.563,0,0,1,.575.575,4.229,4.229,0,0,1,4.6-4.6H264.9v-8.044a4.229,4.229,0,0,1,4.6-4.6h5.172a4.229,4.229,0,0,1,4.6,4.6v8.044h4.6a4.229,4.229,0,0,1,4.6,4.6v2.3a4.229,4.229,0,0,1-4.6,4.6h-4.6v13.216c0,1.724.575,3.447,1.724,4.022a4.964,4.964,0,0,0,3.447,1.723c1.724.574,2.874.574,4.023,1.149a4.858,4.858,0,0,1,1.148,3.448v4.022q0,2.585-1.724,3.448a8.906,8.906,0,0,1-4.6,1.149,21.536,21.536,0,0,1-5.746-.575,12.047,12.047,0,0,1-6.321-2.3,11.274,11.274,0,0,1-5.171-5.171,16.687,16.687,0,0,1-1.724-8.044V181.522h-5.746a38.841,38.841,0,0,1,1.149,8.045,4.222,4.222,0,0,1-1.149,3.448q-.863,1.723-3.448,1.723H231.567a10.533,10.533,0,0,0,4.023,5.746,11.582,11.582,0,0,0,6.321,1.724,11.191,11.191,0,0,0,4.6-.575,27.945,27.945,0,0,0,4.022-1.723,7.294,7.294,0,0,1,3.448-.574c1.149,0,2.3,1.148,2.873,2.3l1.149,2.3a7.284,7.284,0,0,1,.575,3.448c0,1.149-1.149,2.3-2.3,2.873-1.724,1.149-4.022,1.724-6.321,2.873a44.626,44.626,0,0,1-9.193,1.149,27.833,27.833,0,0,1-10.343-1.723,21.852,21.852,0,0,1-7.47-5.171,23.709,23.709,0,0,1-4.023-6.321,16.79,16.79,0,0,1-4.022,6.895,25.493,25.493,0,0,1-6.321,4.6,18.352,18.352,0,0,1-8.044,1.723c-2.3,0-4.022,0-5.171-.574l-3.448-1.723c-1.149-1.149-2.3-1.724-2.873-2.874v16.664a4.229,4.229,0,0,1-4.6,4.6Zm16.089-49.99a3.161,3.161,0,0,0-2.874,1.723,19.176,19.176,0,0,0-1.723,3.448,15.916,15.916,0,0,0-.574,5.171,9.784,9.784,0,0,0,.574,4.022c.575,1.149.575,2.3,1.723,3.448a10.078,10.078,0,0,0,2.874,2.3,8.3,8.3,0,0,0,4.022,1.149,9.227,9.227,0,0,0,6.321-2.873c1.723-1.723,2.3-4.022,1.723-8.044,0-3.448-.574-6.321-2.3-8.045a8.231,8.231,0,0,0-6.32-2.873C197.666,179.8,196.517,180.374,195.368,180.374Zm-47.119,0a7.321,7.321,0,0,0-3.447,2.3,12.012,12.012,0,0,0-2.3,3.448,12.641,12.641,0,0,0-.575,4.6,11.189,11.189,0,0,0,.575,4.6,10.567,10.567,0,0,0,5.746,5.746,8.528,8.528,0,0,0,4.023.574,8.526,8.526,0,0,0,4.022-.574,7.332,7.332,0,0,0,3.448-2.3,12.026,12.026,0,0,0,2.3-3.448,18.658,18.658,0,0,0,0-9.193,10.554,10.554,0,0,0-5.746-5.746,8.514,8.514,0,0,0-4.022-.575A8.516,8.516,0,0,0,148.249,180.374ZM99.982,182.1a11.368,11.368,0,0,0-2.873,8.044c0,3.448.574,6.321,2.3,8.045a9.227,9.227,0,0,0,6.321,2.873,7.278,7.278,0,0,0,3.447-.575,3.161,3.161,0,0,0,2.874-1.724l1.724-3.448a17.782,17.782,0,0,1,1.149-4.6,8.522,8.522,0,0,0-.574-4.022l-1.724-3.448a5.732,5.732,0,0,0-2.873-2.3,8.31,8.31,0,0,0-4.022-1.149A7.377,7.377,0,0,0,99.982,182.1ZM58.61,168.881c0,1.149-.574,2.3-.574,3.448s-.574,2.3-.574,3.448l-3.448,12.066H65.506l-3.448-12.066c0-1.149-.574-2.3-.574-3.448s-.575-2.3-.575-3.448a10.655,10.655,0,0,1-1.149-4.022C59.185,166.583,58.61,167.732,58.61,168.881Zm178.7,11.493a11.55,11.55,0,0,0-2.3,4.6h13.791a5.932,5.932,0,0,0-6.321-6.321A7.023,7.023,0,0,0,237.314,180.374Zm74.7-32.179-28.731-31.6c-17.813,13.216-39.073,20.686-58.61,20.686a65.568,65.568,0,0,1-23.559-4.022h-.574a105.506,105.506,0,0,1-32.753,5.171h-6.9a66.893,66.893,0,0,1-28.73-12.066c-25.283,9.768-49.416,6.321-64.356,1.723C32.753,117.741,2.873,90.734,0,66.026a6.733,6.733,0,0,1,5.171-6.321c3.448-.575,6.321,1.723,6.321,6.321,2.3,17.239,27.006,42.521,59.759,52.289,20.111,5.746,58.036,9.769,91.938-26.432-7.47-2.3-13.791-5.746-16.663-11.492C142.5,71.2,147.675,62,163.189,51.661c-1.723-.575-7.47,0-17.813,5.171-5.746,2.873-11.492,2.3-16.089-2.3-7.469-7.47-8.044-22.41-1.724-33.9,4.6-8.619,19.537-27.006,59.759-18.388,33.9,6.9,44.245,21.836,46.544,33.328,3.448,13.791-3.447,27.581-12.066,33.9-5.171,4.022-10.343,4.6-14.366,2.3A59.724,59.724,0,0,1,196.517,64.3c0-.575-.575-.575-1.149-1.149a34.026,34.026,0,0,0,2.3,4.6c3.447,5.747,6.895,12.641,4.6,18.388a12.423,12.423,0,0,1-8.044,6.895,54.51,54.51,0,0,1-11.492,1.149h-2.3c3.448,14.366,12.066,24.133,25.283,29.3,20.686,7.47,48.842,1.724,70.677-14.365L260.873,91.883a2.844,2.844,0,0,1,4.022-4.022L280.409,105.1c.575-1.149,1.724-1.724,2.3-2.3A82.244,82.244,0,0,0,296.5,86.711L261.447,75.219a2.726,2.726,0,0,1,1.724-5.171l36.2,12.067a76.086,76.086,0,0,0,8.045-29.88L262.6,57.982h-.574c-1.724,0-2.874-.575-2.874-2.3a2.532,2.532,0,0,1,2.3-3.448l45.969-6.321a65.967,65.967,0,0,0-2.3-17.813c-1.149-2.873,1.149-6.321,4.022-6.9,2.873-1.149,6.321,1.149,6.895,4.023a72.225,72.225,0,0,1,2.874,18.962l28.73-4.023a2.532,2.532,0,0,1,3.448,2.3,2.532,2.532,0,0,1-2.3,3.448l-29.879,4.022a73.613,73.613,0,0,1-8.619,35.051L349.363,98.2a2.561,2.561,0,0,1,1.723,3.448,3.159,3.159,0,0,1-2.873,1.724h-1.149L307.417,90.159a87.545,87.545,0,0,1-17.239,21.261c-.575.574-1.724,1.149-2.3,1.723l28.156,31.6a2.777,2.777,0,0,1,0,4.022,2.108,2.108,0,0,1-1.724.575A2.988,2.988,0,0,1,312.013,148.195ZM144.8,120.614a59.639,59.639,0,0,0,17.813,6.321,162.5,162.5,0,0,0,23.559-1.724c-7.47-5.746-12.641-14.366-16.089-24.133C161.465,109.7,153.421,116.017,144.8,120.614Zm27.006-78.147c3.448,4.022,4.022,9.194.575,14.94l-.575,1.149-1.149.574c-12.641,8.045-14.365,13.217-13.791,14.94,2.874,5.747,24.709,9.769,32.753,6.9l1.149-.575c0-1.149-2.873-6.321-4.022-8.619-3.448-6.321-7.47-13.216-2.873-18.962,2.3-2.3,4.6-4.022,7.47-4.022,4.6-.574,8.044,2.874,12.066,5.747,2.873,1.723,5.747,4.6,9.194,6.321,1.724-.575,9.194-7.47,10.344-17.813,1.724-14.366-12.067-25.858-37.924-31.029-32.179-6.321-43.671,5.171-47.693,12.641-4.022,8.045-2.873,17.239-.575,20.111.575.575,1.149.575,2.874,0,8.618-4.022,16.088-6.321,21.835-6.321A14.255,14.255,0,0,1,171.808,42.466ZM48.842,88.436a3.447,3.447,0,1,1,3.447,3.447A3.447,3.447,0,0,1,48.842,88.436ZM75.848,68.324A3.448,3.448,0,1,1,79.3,71.771,3.448,3.448,0,0,1,75.848,68.324ZM95.96,55.108a3.448,3.448,0,1,1,3.448,3.448A3.447,3.447,0,0,1,95.96,55.108ZM68.953,48.213A3.447,3.447,0,1,1,72.4,51.661,3.447,3.447,0,0,1,68.953,48.213ZM35.626,28.1a3.448,3.448,0,1,1,3.448,3.448A3.448,3.448,0,0,1,35.626,28.1Zm66.655-6.321a3.447,3.447,0,1,1,3.448,3.448A3.448,3.448,0,0,1,102.281,21.781Z" fill="#fff"/>
</svg>
