<svg xmlns="http://www.w3.org/2000/svg" width="399.503" height="160.091" viewBox="0 0 399.503 160.091">
  <g id="Agrupar_149" data-name="Agrupar 149" transform="translate(-427.749 -1080)">
    <g id="Agrupar_120" data-name="Agrupar 120" transform="translate(667.45 1080)">
      <rect id="Retângulo_172" data-name="Retângulo 172" width="159.801" height="159.801" rx="8" transform="translate(0 0)" fill="#e53b3b"/>
      <g id="Logo" transform="translate(6.392 41.548)">
        <path id="Caminho_120" data-name="Caminho 120" d="M110.272,47.439a2.064,2.064,0,0,1-1.433-.716,1.859,1.859,0,0,1-.716-1.672V39.558h1.911a1.758,1.758,0,0,0,1.911-1.911v-.955a1.758,1.758,0,0,0-1.911-1.911h-1.911V31.438a1.758,1.758,0,0,0-1.911-1.911h-2.149a1.758,1.758,0,0,0-1.911,1.911v3.344h-.716a1.758,1.758,0,0,0-1.911,1.911h0a.234.234,0,0,0-.239-.239,10.6,10.6,0,0,0-2.627-1.911,8.725,8.725,0,0,0-3.582-.716,11.156,11.156,0,0,0-4.06.716,9.088,9.088,0,0,0-3.1,2.149,9.862,9.862,0,0,0-1.672,2.627,17.814,17.814,0,0,0-1.672-2.866,6.773,6.773,0,0,0-2.627-1.911,7.628,7.628,0,0,0-3.344-.716,8.585,8.585,0,0,0-2.627.478,10.384,10.384,0,0,0-1.672.955l-1.433,1.433h0v-.955a1.824,1.824,0,0,0-.478-1.194,2.019,2.019,0,0,0-1.433-.478H67.283c-1.433,0-1.911.716-1.911,1.911v4.06c0-.239-.239-.478-.239-.716a9.088,9.088,0,0,0-2.149-3.1A9.37,9.37,0,0,0,59.64,34.3a11.862,11.862,0,0,0-8.12,0,15.227,15.227,0,0,0-3.344,1.911,9.088,9.088,0,0,0-2.149,3.1c0,.239-.239.478-.239.716V28.811A1.758,1.758,0,0,0,43.878,26.9H41.728c-1.433,0-1.911.716-1.911,1.911v6.448h0l-.955-.955-1.433-.716a6.656,6.656,0,0,0-2.388-.239,7.628,7.628,0,0,0-3.344.716,10.6,10.6,0,0,0-2.627,1.911,7.865,7.865,0,0,0-1.672,3.1,17.758,17.758,0,0,0-.716,4.06v.239L21.667,28.333c-.955-.478-1.672-1.194-2.866-1.194H15.457a1.9,1.9,0,0,0-2.149,1.672L5.9,50.544a2.02,2.02,0,0,0,0,1.672,1.444,1.444,0,0,0,1.433.716H9.725a1.9,1.9,0,0,0,2.149-1.672l1.194-3.821H20.95l1.194,3.821a2.044,2.044,0,0,0,2.149,1.672h2.388a1.444,1.444,0,0,0,1.433-.716,2.02,2.02,0,0,0,0-1.672,10.6,10.6,0,0,0,2.627,1.911,7.628,7.628,0,0,0,3.344.716,7.065,7.065,0,0,0,2.388-.478,3.849,3.849,0,0,0,1.672-.955,6.332,6.332,0,0,0,1.194-1.433h0v.716a1.758,1.758,0,0,0,1.911,1.911h1.911a1.758,1.758,0,0,0,1.911-1.911v-4.06c0,.239.239.478.239.716a9.088,9.088,0,0,0,2.149,3.1A9.371,9.371,0,0,0,50.8,52.693a11.862,11.862,0,0,0,8.12,0,15.227,15.227,0,0,0,3.344-1.911,9.088,9.088,0,0,0,2.149-3.1c0-.239.239-.478.239-.716V58.187A1.758,1.758,0,0,0,66.566,60.1h2.149a1.758,1.758,0,0,0,1.911-1.911V51.26h0c.239.478.716.716,1.194,1.194l1.433.716a5.3,5.3,0,0,0,2.149.239,7.628,7.628,0,0,0,3.344-.716,10.6,10.6,0,0,0,2.627-1.911,6.985,6.985,0,0,0,1.672-2.866,9.862,9.862,0,0,0,1.672,2.627,9.088,9.088,0,0,0,3.1,2.149,11.569,11.569,0,0,0,4.3.716,18.561,18.561,0,0,0,3.821-.478,28.017,28.017,0,0,0,2.627-1.194,1.587,1.587,0,0,0,.955-1.194,3.029,3.029,0,0,0-.239-1.433l-.478-.955a1.587,1.587,0,0,0-1.194-.955,3.029,3.029,0,0,0-1.433.239,11.641,11.641,0,0,1-1.672.716,4.656,4.656,0,0,1-1.911.239,4.814,4.814,0,0,1-2.627-.716A4.38,4.38,0,0,1,88.3,45.29h9.792a1.444,1.444,0,0,0,1.433-.716A1.755,1.755,0,0,0,100,43.14a16.127,16.127,0,0,0-.478-3.344h2.388v6.448a6.936,6.936,0,0,0,.716,3.344,4.686,4.686,0,0,0,2.149,2.149,5.008,5.008,0,0,0,2.627.955,8.959,8.959,0,0,0,2.388.239,3.7,3.7,0,0,0,1.911-.478,1.444,1.444,0,0,0,.716-1.433V49.35a2.019,2.019,0,0,0-.478-1.433A15.217,15.217,0,0,0,110.272,47.439ZM14.5,42.424l1.433-5.015c0-.478.239-.955.239-1.433s.239-.955.239-1.433a6.076,6.076,0,0,1,.478-1.672h0a4.428,4.428,0,0,0,.478,1.672c0,.478.239.955.239,1.433s.239.955.239,1.433l1.433,5.015Zm24.838,3.1-.716,1.433a1.313,1.313,0,0,1-1.194.716A3.029,3.029,0,0,1,36,47.917a3.835,3.835,0,0,1-2.627-1.194,4.669,4.669,0,0,1-.955-3.344,4.725,4.725,0,0,1,1.194-3.344A3.066,3.066,0,0,1,36,39.08a3.452,3.452,0,0,1,1.672.478,2.384,2.384,0,0,1,1.194.955l.716,1.433a3.541,3.541,0,0,1,.239,1.672A7.383,7.383,0,0,0,39.34,45.529Zm20.062,0a5,5,0,0,1-.955,1.433,3.045,3.045,0,0,1-1.433.955,3.541,3.541,0,0,1-1.672.239,3.541,3.541,0,0,1-1.672-.239,4.391,4.391,0,0,1-2.388-2.388,4.656,4.656,0,0,1-.239-1.911,5.259,5.259,0,0,1,.239-1.911,5,5,0,0,1,.955-1.433,3.045,3.045,0,0,1,1.433-.955,3.541,3.541,0,0,1,1.672-.239,3.541,3.541,0,0,1,1.672.239A4.391,4.391,0,0,1,59.4,41.707a4.656,4.656,0,0,1,.239,1.911A4.656,4.656,0,0,1,59.4,45.529Zm18.151,1.433a3.835,3.835,0,0,1-2.627,1.194,3.452,3.452,0,0,1-1.672-.478,4.193,4.193,0,0,1-1.194-.955c-.478-.478-.478-.955-.716-1.433a4.064,4.064,0,0,1-.239-1.672,6.612,6.612,0,0,1,.239-2.149,7.951,7.951,0,0,1,.716-1.433,1.313,1.313,0,0,1,1.194-.716c.478,0,.955-.239,1.433-.239a3.422,3.422,0,0,1,2.627,1.194,4.669,4.669,0,0,1,.955,3.344C78.508,45.29,78.269,46.245,77.553,46.962Zm12.18-5.732a4.8,4.8,0,0,1,.955-1.911,2.919,2.919,0,0,1,2.149-.716,2.466,2.466,0,0,1,2.627,2.627Z" transform="translate(7.948 35.65)" fill="#fff"/>
        <path id="Caminho_121" data-name="Caminho 121" d="M145.208,41.527l-16.24-5.493a30.593,30.593,0,0,0,3.582-14.569l12.419-1.672a1.052,1.052,0,0,0,.955-1.433,1.052,1.052,0,0,0-1.433-.955L132.55,19.077a30.029,30.029,0,0,0-1.194-7.881,2.346,2.346,0,1,0-4.538,1.194,27.414,27.414,0,0,1,.955,7.4L108.667,22.42a1.052,1.052,0,0,0-.955,1.433c0,.716.478.955,1.194.955h.239l18.629-2.388a31.618,31.618,0,0,1-3.344,12.419l-15.046-5.015a1.133,1.133,0,0,0-.716,2.149l14.569,4.777a34.179,34.179,0,0,1-5.732,6.687c-.239.239-.716.478-.955.955L110.1,37.228a1.182,1.182,0,0,0-1.672,1.672l6.448,7.165C105.8,52.751,94.1,55.14,85.5,52.035a16.529,16.529,0,0,1-10.508-12.18h.955a22.669,22.669,0,0,0,4.777-.478,5.164,5.164,0,0,0,3.344-2.866c.955-2.388-.478-5.254-1.911-7.643a14.182,14.182,0,0,1-.955-1.911c.239.239.478.239.478.478a24.821,24.821,0,0,0,4.538,3.1c1.672.955,3.821.716,5.971-.955A13.971,13.971,0,0,0,97.2,15.494c-.955-4.777-5.254-10.986-19.345-13.852C61.14-1.94,54.93,5.7,53.02,9.285c-2.627,4.777-2.388,10.986.716,14.091a5.431,5.431,0,0,0,6.687.955h0c4.3-2.149,6.687-2.388,7.4-2.149h0c-6.448,4.3-8.6,8.12-6.926,11.941,1.194,2.388,3.821,3.821,6.926,4.777C53.736,53.946,37.974,52.274,29.615,49.886,16,45.825,5.732,35.317,4.777,28.152c0-1.911-1.194-2.866-2.627-2.627A2.8,2.8,0,0,0,0,28.152c1.194,10.27,13.613,21.495,28.182,25.793a41.269,41.269,0,0,0,26.749-.716,27.805,27.805,0,0,0,11.941,5.015h2.866A43.856,43.856,0,0,0,83.351,56.1h.239a27.249,27.249,0,0,0,9.792,1.672c8.12,0,16.957-3.1,24.36-8.6L129.684,62.3a1.241,1.241,0,0,0,.955.478.877.877,0,0,0,.716-.239,1.154,1.154,0,0,0,0-1.672l-11.7-13.136c.239-.239.716-.478.955-.716a36.376,36.376,0,0,0,7.165-8.837l16.479,5.493h.478a1.313,1.313,0,0,0,1.194-.716A1.064,1.064,0,0,0,145.208,41.527ZM65.2,31.5c-.239-.716.478-2.866,5.732-6.21l.478-.239.239-.478c1.433-2.388,1.194-4.538-.239-6.21a5.925,5.925,0,0,0-4.3-1.672c-2.388,0-5.493.955-9.075,2.627-.716.239-.955.239-1.194,0-.955-1.194-1.433-5.015.239-8.359C58.752,7.852,63.528,3.075,76.9,5.7,87.65,7.852,93.382,12.628,92.665,18.6c-.478,4.3-3.582,7.165-4.3,7.4-1.433-.716-2.627-1.911-3.821-2.627-1.672-1.194-3.1-2.627-5.015-2.388a4.511,4.511,0,0,0-3.1,1.672c-1.911,2.388-.239,5.254,1.194,7.881a22.284,22.284,0,0,1,1.672,3.582l-.478.239C75.47,35.556,66.394,33.884,65.2,31.5Zm2.388,21.972a24.785,24.785,0,0,1-7.4-2.627,44.542,44.542,0,0,0,10.508-8.12A21.314,21.314,0,0,0,77.38,52.751,67.538,67.538,0,0,1,67.588,53.468Z" transform="translate(0 -0.709)" fill="#fff"/>
        <ellipse id="Elipse_36" data-name="Elipse 36" cx="1.433" cy="1.433" rx="1.433" ry="1.433" transform="translate(28.659 18.606)" fill="#fff"/>
        <ellipse id="Elipse_37" data-name="Elipse 37" cx="1.433" cy="1.433" rx="1.433" ry="1.433" transform="translate(31.525 26.965)" fill="#fff"/>
        <ellipse id="Elipse_38" data-name="Elipse 38" cx="1.433" cy="1.433" rx="1.433" ry="1.433" transform="translate(20.3 35.324)" fill="#fff"/>
        <ellipse id="Elipse_39" data-name="Elipse 39" cx="1.433" cy="1.433" rx="1.433" ry="1.433" transform="translate(39.884 21.472)" fill="#fff"/>
        <ellipse id="Elipse_40" data-name="Elipse 40" cx="1.433" cy="1.433" rx="1.433" ry="1.433" transform="translate(14.807 10.247)" fill="#fff"/>
        <ellipse id="Elipse_41" data-name="Elipse 41" cx="1.433" cy="1.433" rx="1.433" ry="1.433" transform="translate(42.511 7.62)" fill="#fff"/>
      </g>
    </g>
    <g id="Logo-2" data-name="Logo" transform="translate(427.749 1111.96)">
      <path id="Caminho_122" data-name="Caminho 122" d="M145.631,54.386a2.762,2.762,0,0,1-1.918-.959,2.488,2.488,0,0,1-.959-2.237V43.839h2.557a2.352,2.352,0,0,0,2.557-2.557V40a2.352,2.352,0,0,0-2.557-2.557h-2.557V32.972a2.352,2.352,0,0,0-2.557-2.557h-2.876a2.352,2.352,0,0,0-2.557,2.557v4.474h-.959A2.352,2.352,0,0,0,131.249,40h0a.313.313,0,0,0-.32-.32,14.19,14.19,0,0,0-3.516-2.557,11.676,11.676,0,0,0-4.794-.959,14.929,14.929,0,0,0-5.433.959A12.162,12.162,0,0,0,113.031,40a13.2,13.2,0,0,0-2.237,3.516,23.838,23.838,0,0,0-2.237-3.835,9.064,9.064,0,0,0-3.516-2.557,10.208,10.208,0,0,0-4.474-.959,11.489,11.489,0,0,0-3.516.639,13.9,13.9,0,0,0-2.237,1.278L92.9,40h0V38.725a2.441,2.441,0,0,0-.639-1.6,2.7,2.7,0,0,0-1.918-.639H88.1c-1.918,0-2.557.959-2.557,2.557v5.433c0-.32-.32-.639-.32-.959a12.162,12.162,0,0,0-2.876-4.155,12.54,12.54,0,0,0-4.474-2.557,15.874,15.874,0,0,0-10.866,0,20.377,20.377,0,0,0-4.474,2.557,12.162,12.162,0,0,0-2.876,4.155c0,.32-.32.639-.32.959V29.457A2.352,2.352,0,0,0,56.781,26.9H53.905c-1.918,0-2.557.959-2.557,2.557v8.629h0L50.07,36.808l-1.918-.959a8.907,8.907,0,0,0-3.2-.32,10.208,10.208,0,0,0-4.474.959,14.191,14.191,0,0,0-3.516,2.557A10.525,10.525,0,0,0,34.729,43.2a23.764,23.764,0,0,0-.959,5.433v.32L27.058,28.818c-1.278-.639-2.237-1.6-3.835-1.6H18.749a2.547,2.547,0,0,0-2.876,2.237L5.965,58.541a2.7,2.7,0,0,0,0,2.237,1.933,1.933,0,0,0,1.918.959h3.2A2.547,2.547,0,0,0,13.955,59.5l1.6-5.114H26.1L27.7,59.5a2.736,2.736,0,0,0,2.876,2.237h3.2a1.933,1.933,0,0,0,1.918-.959,2.7,2.7,0,0,0,0-2.237A14.191,14.191,0,0,0,39.2,61.1a10.208,10.208,0,0,0,4.474.959,9.455,9.455,0,0,0,3.2-.639,5.151,5.151,0,0,0,2.237-1.278,8.474,8.474,0,0,0,1.6-1.918h0v.959a2.352,2.352,0,0,0,2.557,2.557h2.557a2.352,2.352,0,0,0,2.557-2.557V53.747c0,.32.32.639.32.959a12.162,12.162,0,0,0,2.876,4.155,12.54,12.54,0,0,0,4.474,2.557,15.874,15.874,0,0,0,10.866,0,20.377,20.377,0,0,0,4.474-2.557,12.162,12.162,0,0,0,2.876-4.155c0-.32.32-.639.32-.959V68.768a2.352,2.352,0,0,0,2.557,2.557H90.02a2.352,2.352,0,0,0,2.557-2.557V59.5h0c.32.639.959.959,1.6,1.6l1.918.959a7.094,7.094,0,0,0,2.876.32,10.208,10.208,0,0,0,4.474-.959,14.191,14.191,0,0,0,3.516-2.557,9.348,9.348,0,0,0,2.237-3.835,13.2,13.2,0,0,0,2.237,3.516,12.162,12.162,0,0,0,4.155,2.876,15.482,15.482,0,0,0,5.753.959,24.839,24.839,0,0,0,5.114-.639,37.492,37.492,0,0,0,3.516-1.6,2.124,2.124,0,0,0,1.278-1.6,4.054,4.054,0,0,0-.32-1.918l-.639-1.278a2.123,2.123,0,0,0-1.6-1.278,4.054,4.054,0,0,0-1.918.32,15.582,15.582,0,0,1-2.237.959,6.231,6.231,0,0,1-2.557.32,6.443,6.443,0,0,1-3.516-.959,5.861,5.861,0,0,1-2.237-3.2h13.1a1.933,1.933,0,0,0,1.918-.959,2.348,2.348,0,0,0,.639-1.918,21.581,21.581,0,0,0-.639-4.474h3.2v8.629a9.282,9.282,0,0,0,.959,4.474,6.271,6.271,0,0,0,2.876,2.876,6.7,6.7,0,0,0,3.516,1.278,11.989,11.989,0,0,0,3.2.32,4.951,4.951,0,0,0,2.557-.639,1.933,1.933,0,0,0,.959-1.918V56.943a2.7,2.7,0,0,0-.639-1.918A20.359,20.359,0,0,0,145.631,54.386ZM17.47,47.674l1.918-6.712c0-.639.32-1.278.32-1.918s.32-1.278.32-1.918a8.131,8.131,0,0,1,.639-2.237h0a5.925,5.925,0,0,0,.639,2.237c0,.639.32,1.278.32,1.918s.32,1.278.32,1.918l1.918,6.712Zm33.239,4.155-.959,1.918a1.758,1.758,0,0,1-1.6.959,4.054,4.054,0,0,1-1.918.32,5.132,5.132,0,0,1-3.516-1.6c-.959-.959-1.278-2.557-1.278-4.474a6.322,6.322,0,0,1,1.6-4.474,4.1,4.1,0,0,1,3.2-1.278,4.619,4.619,0,0,1,2.237.639,3.191,3.191,0,0,1,1.6,1.278l.959,1.918a4.739,4.739,0,0,1,.32,2.237A9.88,9.88,0,0,0,50.709,51.829Zm26.847,0a6.686,6.686,0,0,1-1.278,1.918,4.075,4.075,0,0,1-1.918,1.278,4.739,4.739,0,0,1-2.237.32,4.739,4.739,0,0,1-2.237-.32,5.876,5.876,0,0,1-3.2-3.2,6.231,6.231,0,0,1-.32-2.557,7.037,7.037,0,0,1,.32-2.557A6.686,6.686,0,0,1,67.968,44.8a4.075,4.075,0,0,1,1.918-1.278,4.739,4.739,0,0,1,2.237-.32,4.739,4.739,0,0,1,2.237.32,5.876,5.876,0,0,1,3.2,3.2,6.23,6.23,0,0,1,.32,2.557A6.231,6.231,0,0,1,77.556,51.829Zm24.29,1.918a5.132,5.132,0,0,1-3.516,1.6,4.619,4.619,0,0,1-2.237-.639,5.611,5.611,0,0,1-1.6-1.278c-.639-.639-.639-1.278-.959-1.918a5.439,5.439,0,0,1-.32-2.237,8.849,8.849,0,0,1,.32-2.876,10.639,10.639,0,0,1,.959-1.918,1.758,1.758,0,0,1,1.6-.959c.639,0,1.278-.32,1.918-.32a4.579,4.579,0,0,1,3.516,1.6c.959.959,1.278,2.557,1.278,4.474C103.124,51.509,102.8,52.788,101.845,53.747Zm16.3-7.67a6.424,6.424,0,0,1,1.278-2.557,3.907,3.907,0,0,1,2.876-.959,3.3,3.3,0,0,1,3.516,3.516Z" transform="translate(12.572 56.806)" fill="#e53b3b"/>
      <path id="Caminho_123" data-name="Caminho 123" d="M194.318,55.331,172.585,47.98a40.94,40.94,0,0,0,4.794-19.5L194,26.247a1.408,1.408,0,0,0,1.278-1.918,1.408,1.408,0,0,0-1.918-1.278l-15.98,2.237a40.185,40.185,0,0,0-1.6-10.547,3.14,3.14,0,1,0-6.072,1.6,36.686,36.686,0,0,1,1.278,9.908l-25.568,3.516a1.408,1.408,0,0,0-1.278,1.918c0,.959.639,1.278,1.6,1.278h.32l24.929-3.2a42.311,42.311,0,0,1-4.474,16.619l-20.135-6.712a1.516,1.516,0,0,0-.959,2.876l19.5,6.392a45.738,45.738,0,0,1-7.67,8.949c-.32.32-.959.639-1.278,1.278l-8.629-9.588a1.582,1.582,0,1,0-2.237,2.237l8.629,9.588c-12.145,8.949-27.805,12.145-39.311,7.99a22.119,22.119,0,0,1-14.062-16.3h1.278a30.335,30.335,0,0,0,6.392-.639A6.911,6.911,0,0,0,112.5,48.62c1.278-3.2-.639-7.031-2.557-10.227a18.978,18.978,0,0,1-1.278-2.557c.32.32.639.32.639.639a33.216,33.216,0,0,0,6.072,4.155c2.237,1.278,5.114.959,7.99-1.278a18.7,18.7,0,0,0,6.712-18.857C128.8,14.1,123.047,5.793,104.19,1.958,81.818-2.836,73.508,7.391,70.952,12.185c-3.516,6.392-3.2,14.7.959,18.857,2.557,2.557,5.753,2.876,8.949,1.278h0c5.753-2.876,8.949-3.2,9.908-2.876h0C82.138,35.2,79.261,40.31,81.5,45.424c1.6,3.2,5.114,5.114,9.268,6.392-18.857,20.135-39.95,17.9-51.136,14.7C21.413,61.084,7.67,47.022,6.392,37.434c0-2.557-1.6-3.835-3.516-3.516A3.745,3.745,0,0,0,0,37.434C1.6,51.176,18.217,66.2,37.713,71.951c8.31,2.557,21.733,4.474,35.8-.959A37.209,37.209,0,0,0,89.489,77.7h3.835a58.689,58.689,0,0,0,18.217-2.876h.32a36.465,36.465,0,0,0,13.1,2.237c10.866,0,22.692-4.155,32.6-11.506l15.98,17.578a1.66,1.66,0,0,0,1.278.639,1.174,1.174,0,0,0,.959-.32,1.545,1.545,0,0,0,0-2.237L160.121,63.641c.32-.32.959-.639,1.278-.959a48.679,48.679,0,0,0,9.588-11.825l22.053,7.351h.639a1.758,1.758,0,0,0,1.6-.959A1.424,1.424,0,0,0,194.318,55.331ZM87.251,41.908c-.32-.959.639-3.835,7.67-8.31l.639-.32.32-.639c1.918-3.2,1.6-6.072-.32-8.31a7.929,7.929,0,0,0-5.753-2.237c-3.2,0-7.351,1.278-12.145,3.516-.959.32-1.278.32-1.6,0-1.278-1.6-1.918-6.712.32-11.186,2.237-4.155,8.629-10.547,26.527-7.031,14.382,2.876,22.053,9.268,21.094,17.259-.639,5.753-4.794,9.588-5.753,9.908-1.918-.959-3.516-2.557-5.114-3.516-2.237-1.6-4.155-3.516-6.712-3.2-1.6,0-2.876.959-4.155,2.237-2.557,3.2-.32,7.031,1.6,10.547.639,1.278,2.237,4.155,2.237,4.794l-.639.32C100.994,47.341,88.849,45.1,87.251,41.908Zm3.2,29.4A33.167,33.167,0,0,1,80.54,67.8,59.606,59.606,0,0,0,94.6,56.929c1.918,5.433,4.794,10.227,8.949,13.423A90.38,90.38,0,0,1,90.447,71.311Z" transform="translate(0 -0.709)" fill="#e53b3b"/>
      <ellipse id="Elipse_42" data-name="Elipse 42" cx="1.918" cy="1.918" rx="1.918" ry="1.918" transform="translate(38.352 24.899)" fill="#e53b3b"/>
      <ellipse id="Elipse_43" data-name="Elipse 43" cx="1.918" cy="1.918" rx="1.918" ry="1.918" transform="translate(42.187 36.085)" fill="#e53b3b"/>
      <ellipse id="Elipse_44" data-name="Elipse 44" cx="1.918" cy="1.918" rx="1.918" ry="1.918" transform="translate(27.166 47.271)" fill="#e53b3b"/>
      <ellipse id="Elipse_45" data-name="Elipse 45" cx="1.918" cy="1.918" rx="1.918" ry="1.918" transform="translate(53.374 28.734)" fill="#e53b3b"/>
      <ellipse id="Elipse_46" data-name="Elipse 46" cx="1.918" cy="1.918" rx="1.918" ry="1.918" transform="translate(19.815 13.713)" fill="#e53b3b"/>
      <ellipse id="Elipse_47" data-name="Elipse 47" cx="1.918" cy="1.918" rx="1.918" ry="1.918" transform="translate(56.889 10.197)" fill="#e53b3b"/>
    </g>
  </g>
</svg>
